<svg width="116" height="48" viewBox="0 0 116 48" fill="none" xmlns="http://www.w3.org/2000/svg">
    <path d="M12.6816 44.8427V3L3 12.6816" stroke="white" stroke-width="5" stroke-linecap="round" stroke-linejoin="round"/>
    <path d="M33.8142 3H33.8085C29.0249 3 25.147 6.87792 25.147 11.6616V36.1811C25.147 40.9648 29.0249 44.8427 33.8085 44.8427H33.8142C38.5978 44.8427 42.4758 40.9648 42.4758 36.1811V11.6616C42.4758 6.87792 38.5978 3 33.8142 3Z" stroke="white" stroke-width="5" stroke-linecap="round" stroke-linejoin="round"/>
    <path d="M61.7093 3H61.7037C56.92 3 53.0421 6.87792 53.0421 11.6616V36.1811C53.0421 40.9648 56.92 44.8427 61.7037 44.8427H61.7093C66.493 44.8427 70.3709 40.9648 70.3709 36.1811V11.6616C70.3709 6.87792 66.493 3 61.7093 3Z" stroke="white" stroke-width="5" stroke-linecap="round" stroke-linejoin="round"/>
    <path d="M88.7591 18.5366C91.5509 18.5366 93.8141 16.2735 93.8141 13.4817C93.8141 10.6899 91.5509 8.42676 88.7591 8.42676C85.9674 8.42676 83.7042 10.6899 83.7042 13.4817C83.7042 16.2735 85.9674 18.5366 88.7591 18.5366Z" stroke="white" stroke-width="5" stroke-linecap="round" stroke-linejoin="round"/>
    <path d="M108.235 42.5154C111.027 42.5154 113.29 40.2522 113.29 37.4605C113.29 34.6687 111.027 32.4055 108.235 32.4055C105.443 32.4055 103.18 34.6687 103.18 37.4605C103.18 40.2522 105.443 42.5154 108.235 42.5154Z" stroke="white" stroke-width="5" stroke-linecap="round" stroke-linejoin="round"/>
    <path d="M111.582 8.42676L85.3779 41.1796" stroke="white" stroke-width="5" stroke-linecap="round" stroke-linejoin="round"/>
</svg>
