<svg width="47" height="67" viewBox="0 0 47 67" fill="none" xmlns="http://www.w3.org/2000/svg">
    <path d="M23.2913 43.5826C34.4979 43.5826 43.5826 34.4979 43.5826 23.2913C43.5826 12.0847 34.4979 3 23.2913 3C12.0847 3 3 12.0847 3 23.2913C3 34.4979 12.0847 43.5826 23.2913 43.5826Z" stroke="white" stroke-width="5" stroke-linecap="round" stroke-linejoin="round"/>
    <path d="M7.97693 36.9912V64.2797L23.1174 55.7484L38.2578 64.2797V36.9912" stroke="white" stroke-width="5" stroke-linecap="round" stroke-linejoin="round"/>
    <path d="M24.9949 13.6229L26.4532 18.1093C26.5693 18.4685 26.7963 18.7816 27.1017 19.0036C27.407 19.2256 27.7748 19.345 28.1523 19.3446H32.8706C33.2517 19.3392 33.6245 19.456 33.9344 19.6778C34.2443 19.8997 34.475 20.215 34.5927 20.5775C34.7103 20.94 34.7088 21.3307 34.5883 21.6923C34.4678 22.0538 34.2347 22.3673 33.9231 22.5868L30.1056 25.3562C29.7995 25.5783 29.5719 25.892 29.4556 26.2519C29.3394 26.6118 29.3405 26.9994 29.459 27.3586L30.9128 31.8405C31.0349 32.2009 31.0386 32.5909 30.9233 32.9536C30.808 33.3162 30.5797 33.6325 30.2718 33.8561C29.964 34.0798 29.5927 34.1992 29.2121 34.1968C28.8316 34.1944 28.4618 34.0704 28.1568 33.8429L24.3438 31.0734C24.0383 30.8502 23.6697 30.7299 23.2913 30.7299C22.9129 30.7299 22.5444 30.8502 22.2389 31.0734L18.4258 33.8429C18.1208 34.0704 17.751 34.1944 17.3705 34.1968C16.99 34.1992 16.6187 34.0798 16.3108 33.8561C16.0029 33.6325 15.7746 33.3162 15.6593 32.9536C15.544 32.5909 15.5477 32.2009 15.6698 31.8405L17.1237 27.3586C17.2421 26.9994 17.2432 26.6118 17.127 26.2519C17.0108 25.892 16.7831 25.5783 16.477 25.3562L12.6596 22.5868C12.348 22.3673 12.1148 22.0538 11.9943 21.6923C11.8738 21.3307 11.8723 20.94 11.99 20.5775C12.1077 20.215 12.3384 19.8997 12.6483 19.6778C12.9582 19.456 13.331 19.3392 13.712 19.3446H18.4303C18.8078 19.345 19.1757 19.2256 19.481 19.0036C19.7863 18.7816 20.0134 18.4685 20.1295 18.1093L21.5878 13.6229C21.7007 13.2594 21.9269 12.9415 22.2334 12.7157C22.5399 12.4899 22.9106 12.3682 23.2913 12.3682C23.672 12.3682 24.0427 12.4899 24.3492 12.7157C24.6557 12.9415 24.882 13.2594 24.9949 13.6229V13.6229Z" stroke="white" stroke-width="5" stroke-linecap="round" stroke-linejoin="round"/>
</svg>
