<svg width="18" height="18" viewBox="0 0 18 18" fill="none" xmlns="http://www.w3.org/2000/svg">
    <path fill-rule="evenodd" clip-rule="evenodd" d="M9 0C13.9708 0 18 4.02923 18 9C18 13.9708 13.9708 18 9 18C4.02923 18 0 13.9708 0 9C0 4.02923 4.02923 0 9 0ZM9.53896 3.66578C10.151 3.74228 10.6456 3.88974 11.188 4.15454C11.7218 4.41554 12.0635 4.66269 12.5152 5.112C12.9385 5.53639 13.1736 5.85796 13.4225 6.35711C13.7693 7.05323 13.967 7.88124 14.0005 8.79232C14.013 9.10316 14.004 9.17239 13.933 9.26135C13.798 9.43339 13.5007 9.40501 13.3993 9.21151C13.3674 9.14747 13.3584 9.09243 13.3477 8.84389C13.33 8.46208 13.3034 8.21492 13.2501 7.92C13.04 6.76385 12.4851 5.84031 11.5989 5.17777C10.8609 4.62358 10.0977 4.35358 9.09797 4.29508C8.75978 4.27535 8.70127 4.26288 8.62477 4.20438C8.48216 4.09223 8.47523 3.82949 8.61231 3.70696C8.69573 3.6308 8.75423 3.61972 9.0443 3.62872C9.19557 3.63391 9.41815 3.65192 9.5393 3.66612L9.53896 3.66578ZM5.47235 3.85789C5.53466 3.87935 5.63055 3.92885 5.68593 3.9645C6.02378 4.18812 6.96496 5.39065 7.2727 5.99123C7.44889 6.33392 7.50738 6.588 7.45234 6.7763C7.39523 6.9788 7.30109 7.08541 6.87947 7.42465C6.71055 7.56138 6.552 7.70158 6.52742 7.73896C6.46338 7.83138 6.41145 8.01243 6.41145 8.14051C6.41353 8.43716 6.60531 8.97543 6.858 9.38908C7.05393 9.71066 7.40424 10.1229 7.75109 10.439C8.15851 10.8118 8.51781 11.0658 8.9235 11.2666C9.44481 11.5262 9.76327 11.592 9.99623 11.4833C10.0551 11.4567 10.1174 11.421 10.1368 11.4051C10.1544 11.3892 10.2915 11.2223 10.441 11.0375C10.729 10.675 10.7948 10.6165 10.9925 10.549C11.2434 10.4639 11.4996 10.4867 11.7575 10.6183C11.953 10.7197 12.3798 10.9842 12.6557 11.1759C13.0185 11.43 13.7946 12.0624 13.8991 12.1884C14.0843 12.4158 14.1162 12.7073 13.9919 13.0285C13.8604 13.3678 13.348 14.004 12.9901 14.2757C12.6665 14.5208 12.437 14.615 12.1344 14.6288C11.8852 14.6416 11.7824 14.6202 11.4639 14.4886C8.96607 13.4605 6.97188 11.9257 5.38892 9.81728C4.56161 8.71582 3.93161 7.57384 3.50134 6.38895C3.25038 5.69803 3.23827 5.39792 3.44424 5.0445C3.5332 4.89531 3.91223 4.52562 4.18812 4.31966C4.64677 3.97869 4.85861 3.85234 5.02753 3.81703C5.14315 3.79211 5.34428 3.81185 5.47235 3.85789ZM9.66184 4.9538C10.7418 5.11199 11.5778 5.61289 12.1258 6.42635C12.4335 6.88465 12.6256 7.42293 12.6914 7.99997C12.7146 8.21147 12.7146 8.59708 12.6897 8.66111C12.6665 8.72134 12.5917 8.80304 12.5276 8.83662C12.4584 8.87227 12.3106 8.8688 12.2289 8.82623C12.0918 8.757 12.051 8.64657 12.051 8.34853C12.051 7.88815 11.9316 7.40354 11.7256 7.02658C11.4935 6.59959 11.1505 6.2431 10.7328 5.99469C10.3753 5.78146 9.8467 5.62361 9.36485 5.5845C9.19039 5.57031 9.09414 5.53466 9.02837 5.45816C8.9792 5.40409 8.9498 5.33495 8.94496 5.26203C8.94012 5.18911 8.96014 5.1167 9.00173 5.05661C9.09416 4.91295 9.23676 4.88976 9.66184 4.9538ZM10.0405 6.29481C10.3912 6.36958 10.6598 6.50249 10.8893 6.7178C11.1846 6.99646 11.3462 7.33397 11.4175 7.81893C11.4657 8.13497 11.4459 8.25958 11.3341 8.36239C11.2289 8.45828 11.035 8.46208 10.9177 8.37139C10.8322 8.30735 10.8055 8.23985 10.7861 8.05708C10.763 7.81373 10.7204 7.64307 10.6473 7.48488C10.4909 7.14911 10.215 6.97535 9.74908 6.91824C9.52996 6.89158 9.46419 6.867 9.39323 6.78323C9.26342 6.62885 9.31293 6.37822 9.49293 6.28614C9.56043 6.25222 9.58881 6.24878 9.73835 6.25743C9.83977 6.26343 9.9407 6.27591 10.0405 6.29481Z" fill="white"/>
</svg>
