<svg width="19" height="18" viewBox="0 0 19 18" fill="none" xmlns="http://www.w3.org/2000/svg">
    <path fill-rule="evenodd" clip-rule="evenodd" d="M9.49763 0H9.50238C14.7404 0 19 4.03762 19 8.99999C19 13.9624 14.7404 18 9.50238 18C7.64356 18.0038 5.82514 17.4863 4.2762 16.5127L0.624637 17.6186L1.80857 14.2751C0.630158 12.7431 -0.00324021 10.8956 1.24651e-05 8.99999C1.24651e-05 4.0365 4.25957 0 9.49763 0ZM13.1658 13.9792C13.8914 13.8307 14.801 13.3222 15.0302 12.7091C15.2593 12.0948 15.2593 11.5717 15.1928 11.4603C15.1391 11.3719 15.0122 11.314 14.8226 11.2276C14.7733 11.2051 14.7197 11.1806 14.662 11.1532C14.383 11.0216 13.0257 10.3859 12.7692 10.3016C12.5174 10.2116 12.2775 10.2431 12.0875 10.4973C12.0514 10.5452 12.0153 10.5933 11.9795 10.6411C11.7503 10.9465 11.5292 11.2411 11.3454 11.4288C11.1779 11.5976 10.9048 11.6189 10.6756 11.5289C10.6506 11.5191 10.622 11.5081 10.5899 11.4958C10.227 11.357 9.42214 11.049 8.44785 10.2273C7.62611 9.53431 7.06798 8.67144 6.90648 8.41268C6.74792 8.15312 6.88469 8.00091 7.0111 7.86024C7.01344 7.85763 7.01577 7.85503 7.01811 7.85244C7.09961 7.7569 7.1787 7.67736 7.25818 7.59741C7.31535 7.53991 7.37273 7.4822 7.43136 7.41819C7.44006 7.40868 7.44853 7.39945 7.45678 7.39047C7.58126 7.25487 7.65539 7.17413 7.73892 7.00531C7.83392 6.83094 7.76623 6.65094 7.69854 6.51819C7.65197 6.42522 7.36427 5.76391 7.1173 5.19624C7.01163 4.95333 6.91341 4.72758 6.84473 4.57081C6.66067 4.15344 6.52054 4.13769 6.24148 4.12644C6.23293 4.12603 6.2243 4.12562 6.21557 4.1252C6.12736 4.12097 6.03021 4.11631 5.92323 4.11631C5.55986 4.11631 5.18105 4.21756 4.95186 4.43919C4.94385 4.44694 4.9355 4.45498 4.92684 4.46333C4.63363 4.74583 3.98048 5.37513 3.98048 6.62956C3.98048 7.88642 4.92182 9.10279 5.09599 9.32785C5.10079 9.33406 5.10501 9.33951 5.10861 9.34418C5.11909 9.35723 5.13884 9.38433 5.16759 9.42377C5.52322 9.91167 7.25541 12.2881 9.83842 13.3019C12.021 14.1592 12.6694 14.0793 13.1658 13.9792Z" fill="white"/>
</svg>
